<?xml version="1.0" encoding="utf-8"?>
<!-- Generator: Adobe Illustrator 21.0.2, SVG Export Plug-In . SVG Version: 6.00 Build 0)  -->
<svg version="1.1" id="Layer_1" xmlns="http://www.w3.org/2000/svg" xmlns:xlink="http://www.w3.org/1999/xlink" x="0px" y="0px"
	 viewBox="0 0 789 256" style="enable-background:new 0 0 789 256;" xml:space="preserve">
<style type="text/css">
	.st0{fill:#FFFFFF;}
	.st1{fill:#662D91;}
	.st2{fill:none;stroke:#662D91;stroke-width:5;stroke-miterlimit:10;}
	.st3{font-family:'JavaneseText';}
	.st4{font-size:48px;}
</style>
<rect class="st0" width="789" height="256"/>
<g>
	<path class="st0" d="M126.8,208.9c-5.9,0-11.9-0.8-17.7-2.4c-14.8-4-27.8-12.5-37.6-24.7L70,180l-2.1,1c-1.6,0.8-3.4,1.2-5.2,1.2
		c-5.1,0-10-3.1-12.3-8c-3.3-6.7-1.1-14.6,5.1-18l2.1-1.1l-0.6-2.3c-2.9-11.3-3.2-22.7-0.8-33.9c6.7-31.4,33.3-53.3,64.6-53.3
		c5.9,0,11.9,0.8,17.7,2.4c15.1,4.1,28.4,12.9,38.4,25.6l1.4,1.8l2.1-1c1.6-0.7,3.3-1.1,5-1.1c5.1,0,10,3.1,12.4,8
		c3.3,6.7,1,14.8-5.3,18.1l-2.1,1.1l0.5,2.3c2.6,10.9,2.8,22,0.5,32.8C184.7,187,158.1,208.9,126.8,208.9
		C126.9,208.9,126.8,208.9,126.8,208.9z"/>
	<path class="st1" d="M120.7,68.7c5.7,0,11.4,0.8,17,2.3c14.5,3.9,27.2,12.4,36.8,24.6l2.9,3.7l4.3-1.9c1.2-0.5,2.5-0.8,3.8-0.8
		c4,0,7.8,2.5,9.7,6.3c2.6,5.3,0.8,11.6-4,14.1l-4.2,2.2l1.1,4.6c2.5,10.5,2.7,21.1,0.4,31.4c-6.4,30-31.7,50.9-61.6,50.9
		c-5.7,0-11.4-0.8-17-2.3c-14.1-3.8-26.6-12-36.1-23.7l-3-3.7l-4.3,2c-1.2,0.6-2.6,0.9-3.9,0.9c-4,0-7.8-2.5-9.7-6.3
		c-2.6-5.3-0.9-11.4,3.8-14l4.1-2.2l-1.2-4.5c-2.8-10.8-3-21.8-0.7-32.5C65.5,89.6,90.8,68.7,120.7,68.7 M120.7,62.7
		c-32,0-60.3,22.2-67.5,55.6c-2.6,12-2.1,24,0.8,35.3c-7.5,4.1-10.4,13.8-6.3,21.9c3,6.1,9,9.6,15,9.6c2.2,0,4.4-0.5,6.5-1.4
		c9.9,12.2,23.3,21.4,39.2,25.7c6.2,1.7,12.4,2.5,18.5,2.5c32,0,60.3-22.2,67.5-55.6c2.5-11.5,2.2-23.2-0.5-34.1
		c7.7-4,10.6-13.8,6.6-22c-3-6.1-9-9.6-15-9.6c-2.1,0-4.2,0.4-6.2,1.3c-9.9-12.7-23.7-22.3-39.9-26.7
		C133,63.5,126.8,62.7,120.7,62.7L120.7,62.7z"/>
</g>
<g>
	<path class="st1" d="M105.1,147.6c-1.6,0-3.2-0.9-3.9-2.3c-1.2-2.2-0.4-4.9,1.8-6.1c0.7-0.4,1.4-0.6,2.2-0.6c1.6,0,3.2,0.9,3.9,2.3
		c1.2,2.2,0.4,4.9-1.8,6.1C106.6,147.4,105.9,147.6,105.1,147.6z"/>
	<path class="st1" d="M105.1,141.1c0.6,0,1.3,0.3,1.8,1c0.3,0.6,0.3,1.2,0.2,1.5c-0.1,0.3-0.3,0.8-1,1.2c-0.3,0.2-0.6,0.3-1,0.3
		c-0.6,0-1.3-0.3-1.8-1c-0.5-1-0.2-2.2,0.8-2.7C104.4,141.2,104.8,141.1,105.1,141.1 M105.1,136.1c-1.1,0-2.3,0.3-3.4,0.9
		c-3.4,1.9-4.6,6.1-2.7,9.5c1.3,2.3,3.7,3.6,6.1,3.6c1.1,0,2.3-0.3,3.4-0.9c3.4-1.9,4.6-6.1,2.7-9.5
		C110,137.4,107.6,136.1,105.1,136.1L105.1,136.1z"/>
</g>
<g>
	<path class="st1" d="M137.1,132.6c-1.6,0-3.2-0.9-3.9-2.3c-0.6-1.1-0.7-2.3-0.4-3.4c0.3-1.2,1.1-2.1,2.1-2.7
		c0.7-0.4,1.4-0.6,2.2-0.6c1.6,0,3.2,0.9,3.9,2.3c1.2,2.2,0.4,4.9-1.8,6.1C138.6,132.4,137.9,132.6,137.1,132.6z"/>
	<path class="st1" d="M137.1,126.1L137.1,126.1c0.6,0,1.3,0.3,1.8,1c0.5,1,0.2,2.2-0.8,2.7c-0.3,0.2-0.6,0.3-1,0.3
		c-0.6,0-1.3-0.3-1.8-1c-0.3-0.6-0.3-1.2-0.2-1.5c0.1-0.3,0.3-0.8,1-1.2C136.4,126.2,136.8,126.1,137.1,126.1 M137.1,121.1
		c-1.1,0-2.3,0.3-3.4,0.9c-3.4,1.9-4.6,6.1-2.7,9.5c1.3,2.3,3.7,3.6,6.1,3.6c1.1,0,2.3-0.3,3.4-0.9c3.4-1.9,4.6-6.1,2.7-9.5
		C142,122.4,139.6,121.1,137.1,121.1L137.1,121.1z"/>
</g>
<path class="st2" d="M106.3,172.2c12.4,9,46.2-0.7,46.2-21.7"/>
<text transform="matrix(1 0 0 1 199.5586 159.5117)" class="st1 st3 st4">DESERVE FOUNDATION</text>
</svg>
