<?xml version="1.0" encoding="utf-8"?>
<!-- Generator: Adobe Illustrator 21.0.2, SVG Export Plug-In . SVG Version: 6.00 Build 0)  -->
<svg version="1.1" id="Layer_1" xmlns="http://www.w3.org/2000/svg" xmlns:xlink="http://www.w3.org/1999/xlink" x="0px" y="0px"
	 viewBox="0 0 789 256" style="enable-background:new 0 0 789 256;" xml:space="preserve">
<style type="text/css">
	.st0{fill:#73296E;}
	.st1{fill:#FFFFFF;}
	.st2{fill:none;stroke:#FFFFFF;stroke-width:5;stroke-miterlimit:10;}
	.st3{font-family:'JavaneseText';}
	.st4{font-size:38.0712px;}
</style>
<g>
	<rect x="82" y="26.5" class="st0" width="625" height="203"/>
	<g>
		<path class="st0" d="M182.5,191.6c-4.6,0-9.3-0.6-13.9-1.9c-11.6-3.1-21.8-9.8-29.5-19.4l-1.5-1.8l-2.1,1
			c-1.2,0.6-2.5,0.9-3.9,0.9c-3.8,0-7.4-2.3-9.2-6c-2.5-5-0.8-10.9,3.8-13.4l2.1-1.1l-0.6-2.3c-2.3-8.8-2.5-17.8-0.6-26.6
			c5.3-24.6,26-41.8,50.5-41.8c4.6,0,9.3,0.6,13.9,1.9c11.9,3.2,22.3,10.2,30.1,20.1l1.4,1.9l2.1-1c1.2-0.5,2.4-0.8,3.7-0.8
			c3.8,0,7.4,2.3,9.2,6c2.5,5,0.7,11.1-3.9,13.5l-2.1,1.1l0.5,2.3c2.1,8.6,2.2,17.2,0.4,25.7C227.8,174.4,207,191.6,182.5,191.6
			C182.5,191.6,182.5,191.6,182.5,191.6z"/>
		<path class="st1" d="M177.6,82.2c4.4,0,8.8,0.6,13.1,1.8c11.2,3,21.1,9.6,28.5,19.1l2.9,3.7l4.3-1.9c0.8-0.4,1.6-0.5,2.5-0.5
			c2.7,0,5.2,1.7,6.5,4.3c1.8,3.6,0.6,7.8-2.6,9.5l-4.2,2.2l1.1,4.6c2,8.1,2.1,16.3,0.3,24.4c-5,23.2-24.5,39.4-47.6,39.4
			c-4.4,0-8.8-0.6-13.1-1.8c-11-3-20.6-9.3-27.9-18.4l-3-3.7l-4.3,2c-0.8,0.4-1.7,0.6-2.6,0.6c-2.7,0-5.2-1.7-6.5-4.3
			c-1.7-3.5-0.6-7.8,2.5-9.5l4.1-2.2l-1.2-4.5c-2.2-8.4-2.4-16.9-0.6-25.2C135,98.4,154.5,82.2,177.6,82.2 M177.6,76.2
			c-25.3,0-47.8,17.6-53.5,44.1c-2,9.5-1.7,19,0.6,28c-6,3.2-8.2,10.9-5,17.4c2.4,4.8,7.1,7.6,11.9,7.6c1.7,0,3.5-0.4,5.1-1.1
			c7.8,9.7,18.5,17,31,20.4c4.9,1.3,9.9,2,14.7,2c25.3,0,47.8-17.6,53.5-44.1c2-9.1,1.7-18.4-0.4-27c6.1-3.2,8.4-11,5.2-17.5
			c-2.4-4.8-7.1-7.6-11.9-7.6c-1.7,0-3.3,0.3-4.9,1.1c-7.8-10-18.8-17.7-31.6-21.2C187.3,76.8,182.4,76.2,177.6,76.2L177.6,76.2z"/>
	</g>
	<g>
		<path class="st1" d="M165.3,143c-1.1,0-2.1-0.6-2.7-1.6c-0.8-1.5-0.3-3.3,1.2-4.1c0.5-0.3,0.9-0.4,1.5-0.4c1.1,0,2.1,0.6,2.7,1.6
			c0.8,1.5,0.3,3.3-1.2,4.1C166.3,142.9,165.8,143,165.3,143z"/>
		<path class="st1" d="M165.3,139.4c0.1,0,0.3,0,0.5,0.3c0.1,0.3,0.1,0.6-0.2,0.8c-0.1,0-0.2,0.1-0.3,0.1c-0.1,0-0.3,0-0.5-0.3
			c-0.1-0.3-0.1-0.6,0.2-0.8C165.1,139.4,165.2,139.4,165.3,139.4 M165.3,134.4c-0.9,0-1.8,0.2-2.7,0.7c-2.7,1.5-3.7,4.9-2.2,7.5
			c1,1.8,2.9,2.9,4.9,2.9c0.9,0,1.8-0.2,2.7-0.7c2.7-1.5,3.7-4.9,2.2-7.5C169.1,135.5,167.2,134.4,165.3,134.4L165.3,134.4z"/>
	</g>
	<g>
		<path class="st1" d="M190.6,131.1c-1.1,0-2.1-0.6-2.7-1.6c-0.8-1.5-0.3-3.3,1.2-4.1c0.5-0.3,0.9-0.4,1.5-0.4
			c1.1,0,2.1,0.6,2.7,1.6c0.8,1.5,0.3,3.3-1.2,4.1C191.6,131,191.1,131.1,190.6,131.1z"/>
		<path class="st1" d="M190.6,127.5c0.1,0,0.3,0,0.5,0.3c0.1,0.3,0.1,0.6-0.2,0.8c-0.1,0-0.2,0.1-0.3,0.1c-0.1,0-0.3,0-0.5-0.3
			c-0.1-0.3-0.1-0.6,0.2-0.8C190.4,127.5,190.5,127.5,190.6,127.5 M190.6,122.5c-0.9,0-1.8,0.2-2.7,0.7c-2.7,1.5-3.7,4.9-2.2,7.5
			c1,1.8,2.9,2.9,4.9,2.9c0.9,0,1.8-0.2,2.7-0.7c2.7-1.5,3.7-4.9,2.2-7.5C194.5,123.6,192.6,122.5,190.6,122.5L190.6,122.5z"/>
	</g>
	<path class="st2" d="M166.2,163c9.8,7.1,36.6-0.5,36.6-17.2"/>
	<text transform="matrix(0.9987 0 0 1 240.0742 152.9883)" class="st1 st3 st4">DESERVE FOUNDATION</text>
</g>
</svg>
